<svg xmlns="http://www.w3.org/2000/svg" xmlns:xlink="http://www.w3.org/1999/xlink" viewBox="0 0 281.69 295.36"><defs><style>.cls-1,.cls-4{fill:none;}.cls-2{fill:url(#radial-gradient);}.cls-3{clip-path:url(#clip-path);}.cls-4{stroke:#000;stroke-miterlimit:10;stroke-width:11.24px;}</style><radialGradient id="radial-gradient" cx="879.46" cy="140.84" r="135.22" gradientTransform="matrix(-1, 0, 0, 1, 1020.3, 0)" gradientUnits="userSpaceOnUse"><stop offset="0" stop-color="#fff"/><stop offset="1" stop-color="#999"/></radialGradient><clipPath id="clip-path"><circle class="cls-1" cx="140.84" cy="140.84" r="135.22"/></clipPath></defs><g id="Layer_2" data-name="Layer 2"><g id="Layer_3" data-name="Layer 3"><circle class="cls-2" cx="140.84" cy="140.84" r="135.22"/><g class="cls-3"><path d="M55.24,295.36s9.36-51,18-56.65a17.82,17.82,0,0,1,3.23-1.6l-2-1.1s10-4.83,19.2-8.68a49.25,49.25,0,0,1,6-2,129.39,129.39,0,0,1,18.49-3.38l-5.2,4.89.15.3.09,0-.11-.28,11.91-10.47,1.22.42V206.14c0-.16-1.48-.34-1.84-.51-19.8,4.23-40.9,7.45-49.5,10.72,4.65-22.95-4-56.6-4.2-76.08-.81-95.94,69.83-90.71,69.83-90.71S168.17,47.14,188.36,73a37.15,37.15,0,0,1,3,4.22C197,85.55,201.81,96.44,205,110.61c13.12,51.64,3.86,117.16,3.86,117.16-23.34-9.69-52.58-15.91-52.58-15.91l.1,4.79.31-.3,10.47,9.85-4.55-4.27a126.4,126.4,0,0,1,19.49,3.65,5.44,5.44,0,0,1,2.39.75h0c.89.31,1.76.63,2.58,1,9.21,3.85,19.2,8.67,19.2,8.67l-1.7.89a19,19,0,0,1,3.7,1.84c8.62,5.69,18,56.65,18,56.65h-171Z"/></g><circle class="cls-4" cx="140.84" cy="140.84" r="135.22"/></g></g></svg>