<svg xmlns="http://www.w3.org/2000/svg" xmlns:xlink="http://www.w3.org/1999/xlink" viewBox="0 0 281.69 285.12"><defs><style>.cls-1,.cls-4{fill:none;}.cls-2{fill:url(#radial-gradient);}.cls-3{clip-path:url(#clip-path);}.cls-4{stroke:#000;stroke-miterlimit:10;stroke-width:11.24px;}</style><radialGradient id="radial-gradient" cx="879.46" cy="140.84" r="135.22" gradientTransform="matrix(-1, 0, 0, 1, 1020.3, 0)" gradientUnits="userSpaceOnUse"><stop offset="0" stop-color="#fff"/><stop offset="1" stop-color="#999"/></radialGradient><clipPath id="clip-path"><circle class="cls-1" cx="140.84" cy="140.84" r="135.22"/></clipPath></defs><g id="Layer_2" data-name="Layer 2"><g id="Layer_3" data-name="Layer 3"><circle class="cls-2" cx="140.84" cy="140.84" r="135.22"/><g class="cls-3"><path d="M4.77,285.12H275.21c-15.6-28-27.16-39.89-27.16-39.89l-65.81-18.42.22-.75-8.32-10.94h-3.76l-1.16-10.42c.05,0,.08.12.08.12l-.37-2.61-.27-2.46,0,0c.3-.23.6-.47.88-.71,8.32-7.35,19.57-24.48,20.55-42.1,0,0,16.22-1.65,17.69-19.09,1.09-13-2.63-16.22-7.27-16.85l0,0s1.21-2.92,5-22.89c3.86-27.5-5.11-37.63-12.6-38.79-.32-4.36-.12-5.69,2.42-9-4-.42-5.14,1.53-6.7,4.52-1.2-1.65-1.2-2.87-.16-6.08a5.45,5.45,0,0,0-3.73,6c-16.24-19.91-64.9-2.9-88.76-17.83-3.73,5.81.77,11.41,4.51,14.25-1.66.77-11.12-.85-14-4.4C83.7,55.22,87.73,60.85,91.66,66c-4.42,1.53-14.66-1.2-16.83-2.88a27.71,27.71,0,0,0,8.29,24.6c.35,15.44,1.79,32.55,1.88,33.67-3.83,1.18-6.61,5-5.64,16.5C80.83,155.31,97,157,97,157c.8,14.25,8.31,28.17,15.56,36.86v0l-1.32,9.67v-.05h0l-1.61,11.71h-3.83l-8.32,11,0,.32L31.93,245.28S20.37,257.12,4.77,285.12Zm110-88.87c.32.34.63.66,1,1l-.54-.53,0-.06C115,196.52,114.85,196.38,114.73,196.25Zm1.66,1.7,0,0-.18-.17c.48.46,1,.92,1.42,1.33C117.2,198.72,116.8,198.34,116.39,198Zm-3.24-3.46.93,1.06Zm30.59,11.92h0Zm.23,0h0Zm.3,0h0Zm.4,0h0Zm.46,0h0Zm.54,0h0Zm.6,0h0Zm.67,0h0Zm.71-.06h0Zm.78-.06h0Zm.81-.09-.14,0Zm.87-.09-.16,0Zm.9-.11-.16,0Zm.93-.13-.16,0Zm1-.15-.15,0Zm1-.17-.14,0Zm1-.18-.13,0Zm1-.21-.1,0Zm1-.22h0Zm1-.25h0Zm1-.27Z"/></g><circle class="cls-4" cx="140.84" cy="140.84" r="135.22"/></g></g></svg>